<?xml version="1.0" encoding="iso-8859-1"?>
<!-- Generator: Adobe Illustrator 19.0.0, SVG Export Plug-In . SVG Version: 6.00 Build 0)  -->
<svg version="1.1" id="Layer_1" xmlns="http://www.w3.org/2000/svg" xmlns:xlink="http://www.w3.org/1999/xlink" x="0px" y="0px"
	 viewBox="0 0 512 512" style="enable-background:new 0 0 512 512;" xml:space="preserve">
<circle style="fill:#324A5E;" cx="256" cy="256" r="256"/>
<path style="fill:#2B3B4E;" d="M512,256.002L512,256.002L383.998,128L237.611,269.217L127.998,384L256,512
	C397.384,512,512,397.384,512,256.002z"/>
<polygon style="fill:#B5F1F4;" points="383.998,127.998 127.998,127.998 127.998,383.998 318.778,383.998 383.998,318.778 "/>
<polygon style="fill:#84DBFF;" points="256,127.998 256,383.998 318.778,383.998 383.998,318.778 383.998,127.998 "/>
<polygon style="fill:#31BAFD;" points="318.778,383.998 383.998,318.778 318.778,318.778 "/>
<path style="fill:#324A5E;" d="M260.756,267.378c0,2.582-0.636,5.375-1.908,8.38s-3.272,5.956-6.001,8.851
	s-6.213,5.246-10.454,7.052c-4.241,1.807-9.182,2.71-14.824,2.71c-4.279,0-8.168-0.407-11.673-1.217
	c-3.505-0.81-6.684-2.074-9.542-3.789c-2.858-1.715-5.485-3.974-7.882-6.777c-2.139-2.544-3.965-5.392-5.477-8.547
	c-1.512-3.153-2.646-6.516-3.401-10.093c-0.757-3.577-1.134-7.375-1.134-11.395c0-6.527,0.948-12.371,2.848-17.534
	c1.9-5.163,4.618-9.578,8.158-13.248c3.541-3.668,7.689-6.463,12.447-8.38c4.758-1.917,9.826-2.877,15.212-2.877
	c6.563,0,12.409,1.31,17.534,3.927c5.125,2.619,9.052,5.854,11.781,9.707c2.729,3.853,4.094,7.496,4.094,10.924
	c0,1.881-0.664,3.541-1.991,4.979c-1.329,1.438-2.932,2.157-4.813,2.157c-2.103,0-3.679-0.498-4.73-1.493
	c-1.05-0.996-2.222-2.71-3.513-5.144c-2.139-4.018-4.656-7.025-7.549-9.016c-2.896-1.991-6.463-2.986-10.704-2.986
	c-6.749,0-12.122,2.563-16.124,7.689s-6.001,12.409-6.001,21.849c0,6.306,0.886,11.552,2.655,15.736
	c1.77,4.186,4.277,7.311,7.523,9.376c3.244,2.065,7.042,3.098,11.395,3.098c4.72,0,8.713-1.171,11.976-3.513
	s5.725-5.78,7.385-10.316c0.7-2.138,1.567-3.881,2.6-5.227s2.691-2.019,4.979-2.019c1.955,0,3.632,0.683,5.034,2.048
	C260.055,263.654,260.756,265.35,260.756,267.378z"/>
<g>
	<path style="fill:#2B3B4E;" d="M258.544,240.054c1.327-1.438,1.991-3.098,1.991-4.979c0-3.429-1.365-7.071-4.094-10.924
		c-0.14-0.197-0.295-0.384-0.441-0.579v18.211C256.933,241.43,257.788,240.871,258.544,240.054z"/>
	<path style="fill:#2B3B4E;" d="M260.756,267.378c0-2.027-0.702-3.724-2.101-5.089c-0.793-0.772-1.684-1.302-2.655-1.636v20.101
		c1.169-1.648,2.136-3.312,2.848-4.996C260.12,272.753,260.756,269.96,260.756,267.378z"/>
	<path style="fill:#2B3B4E;" d="M273.146,283.143l2.048-10.343c-5.089-0.11-7.633-2.138-7.633-6.084
		c0-1.845,0.636-3.346,1.908-4.508c1.272-1.162,3.144-1.743,5.615-1.743h2.6l3.153-16.096h-5.753c-2.398,0-4.249-0.6-5.56-1.798
		c-1.308-1.198-1.964-2.663-1.964-4.398c0-1.843,0.636-3.327,1.908-4.453c1.272-1.124,3.144-1.688,5.615-1.688h8.242l2.6-12.667
		c0.405-2.139,0.859-3.817,1.355-5.034c0.498-1.217,1.179-2.139,2.046-2.765c0.865-0.626,2-0.94,3.403-0.94
		c1.953,0,3.448,0.517,4.48,1.548c1.033,1.033,1.548,2.36,1.548,3.982c0,0.369-0.314,2.231-0.94,5.587l-2.046,10.288h12.114
		l2.655-12.667c0.367-1.917,0.719-3.467,1.052-4.646c0.331-1.181,0.931-2.176,1.796-2.988c0.865-0.81,2.129-1.217,3.789-1.217
		c1.917,0,3.401,0.498,4.453,1.495c1.052,0.996,1.577,2.341,1.577,4.037c0,0.774-0.047,1.531-0.138,2.267
		c-0.093,0.738-0.214,1.448-0.359,2.129c-0.148,0.683-0.241,1.115-0.278,1.3l-2.046,10.399c5.273,0.11,7.909,2.157,7.909,6.141
		c0,1.845-0.628,3.319-1.881,4.425c-1.255,1.107-3.117,1.66-5.587,1.66h-2.822l-3.319,16.096h6.141c2.47,0,4.332,0.59,5.587,1.77
		c1.253,1.181,1.881,2.674,1.881,4.48c0,1.807-0.617,3.272-1.853,4.398c-1.236,1.126-3.106,1.688-5.613,1.688h-8.518l-2.6,12.722
		c-0.405,2.029-0.765,3.594-1.077,4.701c-0.314,1.107-0.912,2.076-1.798,2.905c-0.884,0.829-2.157,1.245-3.817,1.245
		c-1.845,0-3.301-0.517-4.37-1.548c-1.071-1.033-1.605-2.379-1.605-4.037c0-1.512,0.257-3.393,0.774-5.642l2.048-10.343h-12.224
		l-2.6,12.722c-0.664,3.134-1.355,5.392-2.076,6.777c-0.719,1.383-2.26,2.074-4.618,2.074c-1.881,0-3.356-0.517-4.425-1.548
		c-1.071-1.033-1.603-2.379-1.603-4.037c0-0.848,0.102-1.798,0.303-2.848C272.822,284.886,272.998,283.955,273.146,283.143z
		 M305.504,244.369h-12.224l-3.263,16.096h12.335L305.504,244.369z"/>
</g>
<g>
</g>
<g>
</g>
<g>
</g>
<g>
</g>
<g>
</g>
<g>
</g>
<g>
</g>
<g>
</g>
<g>
</g>
<g>
</g>
<g>
</g>
<g>
</g>
<g>
</g>
<g>
</g>
<g>
</g>
</svg>
