<svg id="Layer_5" enable-background="new 0 0 64 64" height="512" viewBox="0 0 64 64" width="512" xmlns="http://www.w3.org/2000/svg"><path d="m47 59h-14v-14h14z" fill="#f0bc5e"/><path d="m31 59h-26v-14h26z" fill="#f0bc5e"/><path d="m43 45h-2v4h-2v-4h-2v4h-4v2h4v2h-4v2h4v4h2v-4h2v4h2v-4h4v-2h-4v-2h4v-2h-4zm-2 8h-2v-2h2z"/><path d="m27 45h-2v4h-2v-4h-2v4h-2v-4h-2v4h-2v-4h-2v4h-2v-4h-2v4h-4v2h4v2h-4v2h4v4h2v-4h14v4h2v-4h4v-2h-4v-2h4v-2h-4zm-6 6v2h-2v-2zm-4 0v2h-2v-2zm-6 0h2v2h-2zm14 2h-2v-2h2z"/><path d="m5 41h2v2h-2z"/><path d="m9 41h2v2h-2z"/><path d="m13 41h2v2h-2z"/><path d="m29 41h2v2h-2z"/><path d="m25 41h2v2h-2z"/><path d="m46 41h-9.586l-2.536-2.536c-.944-.944-2.199-1.464-3.535-1.464h-5.562l-1-4h-2.781v-3c0-1.654-1.346-3-3-3h-14c-.551 0-1-.449-1-1s.449-1 1-1h18c1.654 0 3-1.346 3-3s-1.346-3-3-3h-8c-.551 0-1-.449-1-1s.449-1 1-1h20v-2h-20c-1.654 0-3 1.346-3 3s1.346 3 3 3h8c.551 0 1 .449 1 1s-.449 1-1 1h-18c-1.654 0-3 1.346-3 3s1.346 3 3 3h14c.551 0 1 .449 1 1v3h-2.781l-1 4h-9.219c-2.757 0-5 2.243-5 5v16c0 2.757 2.243 5 5 5h40c2.757 0 5-2.243 5-5v-12c0-2.757-2.243-5-5-5zm-28.219-6h4.438l.5 2h-5.438zm31.219 23c0 1.654-1.346 3-3 3h-40c-1.654 0-3-1.346-3-3v-16c0-1.654 1.346-3 3-3h24.343c.79 0 1.562.32 2.121.878l3.122 3.122h10.414c1.654 0 3 1.346 3 3z"/><path d="m63 19.784v-7.567l-2.794-.687c-.123-.333-.262-.665-.417-.995l1.493-2.466-5.352-5.351-2.465 1.492c-.33-.154-.662-.293-.995-.416l-.686-2.794h-7.567l-.687 2.794c-.332.123-.664.262-.995.417l-2.466-1.493-5.352 5.352 1.493 2.466c-.154.331-.293.663-.417.995l-2.793.685v7.567l2.794.687c.123.333.262.665.416.995l-1.492 2.466 5.351 5.351 2.466-1.493c.331.155.663.293.994.417l.687 2.794h7.567l.687-2.794c.332-.123.664-.262.995-.417l2.466 1.493 5.352-5.352-1.493-2.466c.154-.33.293-.662.417-.995zm-15 4.216c-4.418 0-8-3.582-8-8s3.582-8 8-8 8 3.582 8 8-3.582 8-8 8z" fill="#f0bc5e"/><path d="m48 25c-4.962 0-9-4.038-9-9s4.038-9 9-9 9 4.038 9 9-4.038 9-9 9zm0-16c-3.86 0-7 3.14-7 7s3.14 7 7 7 7-3.14 7-7-3.14-7-7-7z"/><path d="m48 21c-2.757 0-5-2.243-5-5s2.243-5 5-5 5 2.243 5 5-2.243 5-5 5zm0-8c-1.654 0-3 1.346-3 3s1.346 3 3 3 3-1.346 3-3-1.346-3-3-3z"/><path d="m17 5h2v8h-2z"/><path d="m29 5h2v8h-2z"/><path d="m13 13h-2c-1.103 0-2-.897-2-2v-4c0-1.103.897-2 2-2h2c1.103 0 2 .897 2 2v4c0 1.103-.897 2-2 2zm-2-6v4h2.001l-.001-4z"/><path d="m25 13h-2c-1.103 0-2-.897-2-2v-4c0-1.103.897-2 2-2h2c1.103 0 2 .897 2 2v4c0 1.103-.897 2-2 2zm-2-6v4h2.001l-.001-4z"/></svg>